<svg width="162" height="47" viewBox="0 0 162 47" fill="none" xmlns="http://www.w3.org/2000/svg">
<g filter="url(#filter0_d_871_1332)">
<path d="M18.45 8.65C18.45 9.51 18.28 10.27 17.94 10.93C17.62 11.57 17.08 12.1 16.32 12.52C16.24 12.58 16.06 12.66 15.78 12.76C15.5 12.86 15.21 12.97 14.91 13.09C14.61 13.19 14.34 13.29 14.1 13.39C13.86 13.49 13.74 13.57 13.74 13.63C13.74 13.71 13.88 13.8 14.16 13.9C14.44 14 14.76 14.1 15.12 14.2C15.48 14.3 15.83 14.39 16.17 14.47C16.51 14.55 16.73 14.61 16.83 14.65C17.85 14.99 18.7 15.5 19.38 16.18C20.08 16.86 20.43 17.79 20.43 18.97C20.43 19.29 20.4 19.65 20.34 20.05C20.3 20.43 20.2 20.84 20.04 21.28C19.9 21.7 19.69 22.14 19.41 22.6C19.15 23.04 18.81 23.47 18.39 23.89C17.85 24.45 17.05 24.9 15.99 25.24C14.95 25.58 13.84 25.84 12.66 26.02C11.5 26.22 10.35 26.35 9.21 26.41C8.07 26.47 7.14 26.5 6.42 26.5C5.94 26.5 5.47 26.48 5.01 26.44C4.57 26.4 4.16 26.3 3.78 26.14C3.4 26 3.05 25.78 2.73 25.48C2.41 25.2 2.13 24.82 1.89 24.34C1.59 23.74 1.34 23.05 1.14 22.27C0.96 21.47 0.81 20.66 0.69 19.84C0.59 19 0.52 18.18 0.48 17.38C0.44 16.56 0.42 15.81 0.42 15.13C0.42 14.45 0.43 13.73 0.45 12.97C0.47 12.21 0.5 11.45 0.54 10.69C0.6 9.91 0.68 9.14 0.78 8.38C0.88 7.62 1 6.91 1.14 6.25C1.34 5.39 1.71 4.68 2.25 4.12C2.79 3.56 3.42 3.12 4.14 2.8C4.86 2.48 5.63 2.26 6.45 2.14C7.29 2.02 8.09 1.96 8.85 1.96C9.93 1.96 11.04 2.06 12.18 2.26C13.32 2.46 14.35 2.82 15.27 3.34C16.21 3.84 16.97 4.52 17.55 5.38C18.15 6.24 18.45 7.33 18.45 8.65ZM8.97 11.47C9.27 11.47 9.56 11.42 9.84 11.32C10.14 11.2 10.4 11.04 10.62 10.84C10.86 10.64 11.05 10.41 11.19 10.15C11.33 9.87 11.4 9.58 11.4 9.28C11.4 8.98 11.33 8.7 11.19 8.44C11.05 8.16 10.86 7.92 10.62 7.72C10.4 7.52 10.14 7.37 9.84 7.27C9.56 7.15 9.27 7.09 8.97 7.09C8.67 7.09 8.41 7.16 8.19 7.3C7.99 7.42 7.82 7.59 7.68 7.81C7.54 8.01 7.44 8.24 7.38 8.5C7.32 8.76 7.29 9.02 7.29 9.28C7.29 9.54 7.32 9.8 7.38 10.06C7.44 10.32 7.54 10.56 7.68 10.78C7.82 10.98 7.99 11.15 8.19 11.29C8.41 11.41 8.67 11.47 8.97 11.47ZM9.24 20.77C9.48 20.77 9.75 20.72 10.05 20.62C10.35 20.52 10.62 20.39 10.86 20.23C11.12 20.05 11.33 19.84 11.49 19.6C11.67 19.36 11.76 19.1 11.76 18.82C11.76 18.54 11.67 18.26 11.49 17.98C11.31 17.68 11.08 17.42 10.8 17.2C10.54 16.98 10.25 16.8 9.93 16.66C9.63 16.52 9.34 16.45 9.06 16.45C8.8 16.45 8.58 16.52 8.4 16.66C8.22 16.8 8.07 16.98 7.95 17.2C7.85 17.4 7.77 17.62 7.71 17.86C7.67 18.1 7.65 18.33 7.65 18.55C7.65 18.79 7.68 19.04 7.74 19.3C7.8 19.56 7.89 19.8 8.01 20.02C8.13 20.24 8.29 20.42 8.49 20.56C8.69 20.7 8.94 20.77 9.24 20.77ZM45.2487 14.95C45.2487 16.65 44.9687 18.14 44.4087 19.42C43.8487 20.7 43.0687 21.78 42.0687 22.66C41.0687 23.52 39.8787 24.17 38.4987 24.61C37.1187 25.05 35.5987 25.27 33.9387 25.27C32.2587 25.27 30.6687 24.99 29.1687 24.43C27.6887 23.85 26.3787 23.05 25.2387 22.03C24.1187 20.99 23.2287 19.75 22.5687 18.31C21.9087 16.87 21.5787 15.29 21.5787 13.57C21.5787 11.61 21.9087 9.92 22.5687 8.5C23.2287 7.06 24.1287 5.87 25.2687 4.93C26.4287 3.97 27.7787 3.26 29.3187 2.8C30.8787 2.34 32.5487 2.11 34.3287 2.11C35.5487 2.11 36.7287 2.37 37.8687 2.89C39.0087 3.39 40.0387 4.07 40.9587 4.93C41.8987 5.77 42.6987 6.73 43.3587 7.81C44.0387 8.89 44.5187 10 44.7987 11.14C45.0987 12.36 45.2487 13.63 45.2487 14.95ZM30.2787 13.42C30.2787 13.82 30.3787 14.17 30.5787 14.47C30.7787 14.77 31.0287 15.02 31.3287 15.22C31.6287 15.4 31.9587 15.54 32.3187 15.64C32.6987 15.74 33.0587 15.79 33.3987 15.79C34.2787 15.79 34.9587 15.57 35.4387 15.13C35.9387 14.67 36.1887 13.99 36.1887 13.09C36.1887 12.65 36.0987 12.26 35.9187 11.92C35.7387 11.58 35.4987 11.29 35.1987 11.05C34.9187 10.81 34.5887 10.63 34.2087 10.51C33.8287 10.39 33.4287 10.33 33.0087 10.33C32.5887 10.33 32.2087 10.42 31.8687 10.6C31.5487 10.78 31.2687 11.01 31.0287 11.29C30.7887 11.57 30.5987 11.9 30.4587 12.28C30.3387 12.64 30.2787 13.02 30.2787 13.42ZM66.5496 16.03C66.5496 17.35 66.3196 18.54 65.8596 19.6C65.3996 20.66 64.7696 21.6 63.9696 22.42C63.1896 23.22 62.2696 23.91 61.2096 24.49C60.1696 25.07 59.0596 25.54 57.8796 25.9C56.7196 26.28 55.5296 26.55 54.3096 26.71C53.0896 26.89 51.9096 26.98 50.7696 26.98C49.9696 26.98 49.2696 26.85 48.6696 26.59C48.0696 26.33 47.6496 25.78 47.4096 24.94C47.2096 24.18 47.0396 23.29 46.8996 22.27C46.7596 21.25 46.6396 20.2 46.5396 19.12C46.4596 18.04 46.3996 16.99 46.3596 15.97C46.3396 14.93 46.3296 14.01 46.3296 13.21C46.3296 12.51 46.3396 11.77 46.3596 10.99C46.3996 10.19 46.4496 9.39 46.5096 8.59C46.5896 7.77 46.6996 6.97 46.8396 6.19C46.9796 5.41 47.1696 4.69 47.4096 4.03C47.5896 3.55 47.8396 3.16 48.1596 2.86C48.4796 2.56 48.8496 2.33 49.2696 2.17C49.6896 1.99 50.1296 1.88 50.5896 1.84C51.0696 1.78 51.5396 1.75 51.9996 1.75C53.0796 1.75 54.1596 1.85 55.2396 2.05C56.3196 2.23 57.3896 2.44 58.4496 2.68C59.7896 3 61.0296 3.63 62.1696 4.57C63.3096 5.49 64.1696 6.58 64.7496 7.84C65.3096 9.1 65.7496 10.44 66.0696 11.86C66.3896 13.26 66.5496 14.65 66.5496 16.03ZM53.8296 13.69C53.8296 13.89 53.8296 14.22 53.8296 14.68C53.8496 15.12 53.8896 15.57 53.9496 16.03C54.0296 16.49 54.1496 16.89 54.3096 17.23C54.4896 17.57 54.7296 17.74 55.0296 17.74C55.2896 17.74 55.5796 17.68 55.8996 17.56C56.2196 17.42 56.5296 17.26 56.8296 17.08C57.1496 16.88 57.4396 16.67 57.6996 16.45C57.9596 16.23 58.1696 16.02 58.3296 15.82C58.4896 15.62 58.5996 15.4 58.6596 15.16C58.7396 14.92 58.7796 14.66 58.7796 14.38C58.7796 13.94 58.6696 13.48 58.4496 13C58.2496 12.5 57.9696 12.05 57.6096 11.65C57.2696 11.23 56.8696 10.89 56.4096 10.63C55.9696 10.35 55.5196 10.21 55.0596 10.21C54.7596 10.21 54.5196 10.35 54.3396 10.63C54.1796 10.91 54.0596 11.25 53.9796 11.65C53.8996 12.03 53.8496 12.41 53.8296 12.79C53.8296 13.17 53.8296 13.47 53.8296 13.69ZM77.2041 1.21C77.6641 1.21 78.1841 1.23 78.7641 1.27C79.3641 1.31 79.9641 1.38 80.5641 1.48C81.1641 1.58 81.7441 1.71 82.3041 1.87C82.8641 2.01 83.3541 2.19 83.7741 2.41C84.0741 2.57 84.3141 2.74 84.4941 2.92C84.6741 3.1 84.8041 3.3 84.8841 3.52C84.9841 3.72 85.0441 3.95 85.0641 4.21C85.0841 4.47 85.0941 4.76 85.0941 5.08C85.0941 6.28 84.8741 7.19 84.4341 7.81C84.0141 8.43 83.4541 8.88 82.7541 9.16C82.0741 9.44 81.2841 9.6 80.3841 9.64C79.5041 9.66 78.5941 9.67 77.6541 9.67C77.4541 9.67 77.2141 9.68 76.9341 9.7C76.6741 9.7 76.4241 9.74 76.1841 9.82C75.9441 9.9 75.7441 10.02 75.5841 10.18C75.4241 10.34 75.3441 10.56 75.3441 10.84C75.3441 11.22 75.4841 11.45 75.7641 11.53C76.0641 11.61 76.3641 11.65 76.6641 11.65C77.2441 11.65 77.8241 11.61 78.4041 11.53C78.9841 11.45 79.5641 11.41 80.1441 11.41C81.0041 11.41 81.6641 11.62 82.1241 12.04C82.5841 12.46 82.8141 13.11 82.8141 13.99C82.8141 14.41 82.7641 14.82 82.6641 15.22C82.5641 15.62 82.3941 15.98 82.1541 16.3C81.9341 16.6 81.6541 16.84 81.3141 17.02C80.9741 17.2 80.5641 17.29 80.0841 17.29C79.6241 17.29 79.1641 17.25 78.7041 17.17C78.2441 17.09 77.7841 17.05 77.3241 17.05C77.2241 17.05 77.0841 17.06 76.9041 17.08C76.7441 17.08 76.5841 17.1 76.4241 17.14C76.2641 17.18 76.1241 17.24 76.0041 17.32C75.9041 17.4 75.8541 17.52 75.8541 17.68C75.8541 18.22 76.0141 18.57 76.3341 18.73C76.6741 18.89 77.0741 18.97 77.5341 18.97C78.4141 18.97 79.2741 18.89 80.1141 18.73C80.9541 18.57 81.8241 18.49 82.7241 18.49C83.3241 18.49 83.8641 18.67 84.3441 19.03C84.8441 19.39 85.2741 19.84 85.6341 20.38C85.9941 20.9 86.2641 21.47 86.4441 22.09C86.6441 22.71 86.7441 23.28 86.7441 23.8C86.7441 24.18 86.5441 24.52 86.1441 24.82C85.7641 25.1 85.2741 25.34 84.6741 25.54C84.0741 25.76 83.4041 25.94 82.6641 26.08C81.9241 26.24 81.2041 26.36 80.5041 26.44C79.8041 26.54 79.1641 26.61 78.5841 26.65C78.0041 26.69 77.5741 26.71 77.2941 26.71C76.7341 26.71 76.1141 26.69 75.4341 26.65C74.7541 26.61 74.0641 26.53 73.3641 26.41C72.6841 26.29 72.0241 26.11 71.3841 25.87C70.7441 25.65 70.1741 25.35 69.6741 24.97C69.1941 24.59 68.8041 24.13 68.5041 23.59C68.2041 23.03 68.0541 22.37 68.0541 21.61C68.0541 19.75 68.0241 17.91 67.9641 16.09C67.9241 14.27 67.9041 12.43 67.9041 10.57C67.9041 10.25 67.8841 9.71 67.8441 8.95C67.8241 8.19 67.8441 7.39 67.9041 6.55C67.9841 5.69 68.1441 4.89 68.3841 4.15C68.6241 3.41 69.0041 2.91 69.5241 2.65C70.0441 2.39 70.6341 2.17 71.2941 1.99C71.9741 1.81 72.6541 1.66 73.3341 1.54C74.0341 1.42 74.7141 1.34 75.3741 1.3C76.0541 1.24 76.6641 1.21 77.2041 1.21ZM93.2873 0.759999C94.1473 0.759999 94.9273 0.859999 95.6273 1.06C96.3473 1.26 96.9573 1.58 97.4573 2.02C97.9773 2.44 98.3773 2.99 98.6573 3.67C98.9373 4.33 99.0773 5.12 99.0773 6.04C99.0773 6.82 98.9873 7.59 98.8073 8.35C98.6473 9.11 98.4573 9.87 98.2373 10.63C98.0373 11.39 97.8473 12.16 97.6673 12.94C97.4873 13.7 97.3973 14.48 97.3973 15.28C97.3973 15.54 97.4073 15.83 97.4273 16.15C97.4473 16.45 97.4973 16.74 97.5773 17.02C97.6773 17.28 97.8273 17.5 98.0273 17.68C98.2473 17.86 98.5473 17.95 98.9273 17.95C99.3673 17.95 99.7473 17.83 100.067 17.59C100.407 17.35 100.687 17.04 100.907 16.66C101.147 16.28 101.327 15.85 101.447 15.37C101.567 14.89 101.627 14.41 101.627 13.93C101.627 13.29 101.537 12.66 101.357 12.04C101.197 11.4 101.017 10.77 100.817 10.15C100.617 9.51 100.427 8.89 100.247 8.29C100.087 7.69 100.007 7.11 100.007 6.55C100.007 5.75 100.187 5.09 100.547 4.57C100.907 4.05 101.347 3.64 101.867 3.34C102.407 3.04 102.987 2.83 103.607 2.71C104.247 2.59 104.837 2.53 105.377 2.53C106.637 2.53 107.627 2.77 108.347 3.25C109.067 3.71 109.607 4.33 109.967 5.11C110.327 5.87 110.547 6.74 110.627 7.72C110.727 8.7 110.777 9.69 110.777 10.69C110.777 12.05 110.687 13.4 110.507 14.74C110.327 16.06 110.117 17.17 109.877 18.07C109.477 19.59 108.897 20.86 108.137 21.88C107.377 22.9 106.487 23.72 105.467 24.34C104.467 24.94 103.367 25.37 102.167 25.63C100.967 25.89 99.7173 26.02 98.4173 26.02C97.3573 26.02 96.2873 25.92 95.2073 25.72C94.1473 25.52 93.1573 25.14 92.2373 24.58C91.3173 24 90.5073 23.19 89.8073 22.15C89.1073 21.11 88.5773 19.76 88.2173 18.1C88.1173 17.64 88.0173 17.09 87.9173 16.45C87.8173 15.79 87.7273 15.06 87.6473 14.26C87.5673 13.44 87.4973 12.57 87.4373 11.65C87.3973 10.73 87.3773 9.78 87.3773 8.8C87.3773 7.78 87.4273 6.79 87.5273 5.83C87.6473 4.87 87.9073 4.02 88.3073 3.28C88.7073 2.52 89.2973 1.91 90.0773 1.45C90.8573 0.989999 91.9273 0.759999 93.2873 0.759999ZM121.647 1.96C122.647 1.96 123.457 2.13 124.077 2.47C124.717 2.81 125.227 3.24 125.607 3.76C126.007 4.28 126.297 4.84 126.477 5.44C126.677 6.02 126.837 6.57 126.957 7.09C127.077 7.61 127.187 8.04 127.287 8.38C127.407 8.72 127.587 8.89 127.827 8.89C128.067 8.89 128.267 8.72 128.427 8.38C128.587 8.04 128.757 7.62 128.937 7.12C129.137 6.62 129.357 6.07 129.597 5.47C129.857 4.87 130.187 4.32 130.587 3.82C130.987 3.32 131.477 2.9 132.057 2.56C132.657 2.22 133.387 2.05 134.247 2.05C135.287 2.05 136.197 2.38 136.977 3.04C137.777 3.68 138.457 4.52 139.017 5.56C139.577 6.58 140.037 7.74 140.397 9.04C140.777 10.34 141.077 11.64 141.297 12.94C141.517 14.22 141.667 15.44 141.747 16.6C141.847 17.76 141.897 18.72 141.897 19.48C141.897 20.8 141.837 21.85 141.717 22.63C141.617 23.39 141.367 23.97 140.967 24.37C140.587 24.75 140.007 24.99 139.227 25.09C138.447 25.21 137.377 25.27 136.017 25.27C135.237 25.27 134.627 25 134.187 24.46C133.747 23.9 133.417 23.22 133.197 22.42C132.997 21.6 132.867 20.71 132.807 19.75C132.747 18.79 132.697 17.91 132.657 17.11C132.617 16.29 132.547 15.61 132.447 15.07C132.367 14.51 132.197 14.23 131.937 14.23C131.677 14.23 131.437 14.4 131.217 14.74C131.017 15.08 130.817 15.5 130.617 16C130.437 16.5 130.237 17.05 130.017 17.65C129.817 18.23 129.577 18.77 129.297 19.27C129.017 19.77 128.697 20.19 128.337 20.53C127.977 20.87 127.537 21.04 127.017 21.04C126.357 21.04 125.807 20.86 125.367 20.5C124.947 20.12 124.587 19.65 124.287 19.09C124.007 18.53 123.777 17.93 123.597 17.29C123.437 16.65 123.287 16.05 123.147 15.49C123.007 14.93 122.867 14.47 122.727 14.11C122.587 13.73 122.407 13.54 122.187 13.54C121.967 13.54 121.787 13.76 121.647 14.2C121.527 14.64 121.417 15.2 121.317 15.88C121.237 16.56 121.167 17.32 121.107 18.16C121.047 19 120.967 19.82 120.867 20.62C120.787 21.42 120.687 22.15 120.567 22.81C120.447 23.47 120.287 23.97 120.087 24.31C119.907 24.59 119.697 24.82 119.457 25C119.217 25.18 118.957 25.32 118.677 25.42C118.397 25.52 118.097 25.59 117.777 25.63C117.457 25.67 117.147 25.69 116.847 25.69C116.407 25.69 115.887 25.64 115.287 25.54C114.707 25.44 114.147 25.27 113.607 25.03C113.067 24.81 112.607 24.51 112.227 24.13C111.847 23.75 111.657 23.28 111.657 22.72C111.657 22.2 111.707 21.66 111.807 21.1C111.907 20.52 111.997 19.97 112.077 19.45C112.217 18.55 112.367 17.6 112.527 16.6C112.687 15.58 112.867 14.55 113.067 13.51C113.287 12.45 113.547 11.41 113.847 10.39C114.167 9.35 114.537 8.37 114.957 7.45C115.397 6.51 115.907 5.65 116.487 4.87C117.067 4.09 117.747 3.43 118.527 2.89C118.987 2.55 119.477 2.31 119.997 2.17C120.517 2.03 121.067 1.96 121.647 1.96Z" fill="white"/>
</g>
<defs>
<filter id="filter0_d_871_1332" x="0.421875" y="0.76001" width="161.477" height="46.22" filterUnits="userSpaceOnUse" color-interpolation-filters="sRGB">
<feFlood flood-opacity="0" result="BackgroundImageFix"/>
<feColorMatrix in="SourceAlpha" type="matrix" values="0 0 0 0 0 0 0 0 0 0 0 0 0 0 0 0 0 0 127 0" result="hardAlpha"/>
<feOffset dx="10" dy="10"/>
<feGaussianBlur stdDeviation="5"/>
<feComposite in2="hardAlpha" operator="out"/>
<feColorMatrix type="matrix" values="0 0 0 0 0.276772 0 0 0 0 0.513333 0 0 0 0 0.327795 0 0 0 0.3 0"/>
<feBlend mode="normal" in2="BackgroundImageFix" result="effect1_dropShadow_871_1332"/>
<feBlend mode="normal" in="SourceGraphic" in2="effect1_dropShadow_871_1332" result="shape"/>
</filter>
</defs>
</svg>
