<svg width="30" height="30" viewBox="0 0 30 30" fill="none" xmlns="http://www.w3.org/2000/svg">
<path d="M25.1748 16.6904L25.1807 16.6934C25.2715 16.1396 25.3154 15.5742 25.3154 15.0146C25.3154 14.5137 25.2773 14.0098 25.207 13.5176C25.2773 14.0068 25.3125 14.502 25.3125 14.9971C25.3125 15.5654 25.2656 16.1338 25.1748 16.6904ZM2.90039 11.6631C2.88574 11.6514 2.87402 11.6396 2.85938 11.625C2.87988 11.6455 2.90039 11.666 2.92383 11.6865L4.84277 13.3242V13.3213L2.90039 11.6631ZM18.6211 5.33496H18.624L18.1699 2.87988C18.1641 2.85059 18.1582 2.82422 18.1494 2.79785C18.1523 2.8125 18.1582 2.83008 18.1611 2.84473L18.6211 5.33496ZM20.2031 21.3457L21.123 20.5898L23.8418 21.5537C24.3398 20.8828 24.7588 20.1621 25.0898 19.3975L22.9014 17.5254L23.0947 16.3506C23.168 15.9082 23.2061 15.4541 23.2061 15C23.2061 14.5459 23.168 14.0918 23.0947 13.6494L22.9043 12.4805L25.0928 10.6084C24.7588 9.84668 24.3428 9.12305 23.8447 8.45215L21.126 9.41602L20.2061 8.66016C19.5059 8.08594 18.7236 7.63477 17.8828 7.31836L16.7666 6.89941L16.2422 4.05762C15.4148 3.96387 14.5794 3.96387 13.752 4.05762L13.2275 6.90527L12.1172 7.32422C11.2822 7.64062 10.5059 8.0918 9.81152 8.66309L8.8916 9.42187L6.15527 8.44922C5.65723 9.12012 5.23828 9.84082 4.90723 10.6055L7.11914 12.4951L6.92871 13.667C6.85547 14.1035 6.82031 14.5518 6.82031 15C6.82031 15.4453 6.8584 15.8965 6.92871 16.333L7.11914 17.5049L4.90723 19.3945C5.24121 20.1562 5.65723 20.8799 6.15527 21.5508L8.8916 20.5781L9.81152 21.3369C10.5059 21.9082 11.2822 22.3594 12.1172 22.6758L13.2246 23.1006L13.749 25.9482C14.5752 26.042 15.416 26.042 16.2393 25.9482L16.7637 23.1064L17.8799 22.6875C18.7236 22.3711 19.5029 21.9199 20.2031 21.3457ZM15.0146 19.8721C14.1211 19.8721 13.2803 19.6436 12.5449 19.2422C10.9365 18.3691 9.84375 16.667 9.84375 14.707C9.84375 11.8594 12.1523 9.55078 15 9.55078C16.96 9.55078 18.6621 10.6436 19.5352 12.252C19.9365 12.9844 20.165 13.8252 20.165 14.7217C20.165 17.5664 17.8594 19.8721 15.0146 19.8721ZM6.07031 23.8125C5.90918 23.8682 5.74219 23.8799 5.58398 23.8477C5.75098 23.8828 5.92676 23.877 6.09668 23.8184L8.48145 22.9687C8.47852 22.9658 8.47266 22.9629 8.46973 22.96L6.07031 23.8125ZM27.0938 11.6631L25.1748 13.3037C25.1748 13.3096 25.1777 13.3184 25.1777 13.3242L27.0938 11.6865C27.3018 11.5078 27.4189 11.25 27.4219 10.9834C27.4131 11.2412 27.2959 11.4902 27.0938 11.6631Z" fill="#6F6F6F"/>
<path d="M27.418 18.9434C27.4326 19.0811 27.418 19.2217 27.3682 19.3564L27.3418 19.4326C26.8122 20.9085 26.0212 22.277 25.0068 23.4727L24.9541 23.5342C24.8312 23.6795 24.667 23.7839 24.4833 23.8336C24.2996 23.8833 24.1052 23.876 23.9258 23.8125L21.5439 22.9658C20.6701 23.6857 19.6832 24.2559 18.623 24.6533L18.1631 27.1436C18.1284 27.3309 18.0375 27.5033 17.9025 27.6378C17.7675 27.7723 17.5947 27.8625 17.4072 27.8965L17.3281 27.9111C16.5624 28.0495 15.7859 28.1192 15.0078 28.1191H15.0166C15.7988 28.1191 16.5811 28.0488 17.3428 27.9111L17.4219 27.8965C17.6094 27.8625 17.7821 27.7723 17.9171 27.6378C18.0521 27.5033 18.143 27.3309 18.1777 27.1436L18.6377 24.6562C19.6982 24.2578 20.6768 23.6924 21.5557 22.9717L23.9346 23.8184C24.114 23.8818 24.3084 23.8892 24.4921 23.8395C24.6758 23.7897 24.84 23.6853 24.9629 23.54L25.0156 23.4785C26.0352 22.2744 26.8174 20.918 27.3477 19.4443L27.374 19.3682C27.4209 19.2305 27.4355 19.084 27.418 18.9434Z" fill="#6F6F6F"/>
<path d="M20.1562 14.707C20.1562 13.8193 19.9307 12.9814 19.5352 12.252C18.6621 10.6436 16.96 9.55078 15 9.55078C12.1523 9.55078 9.84375 11.8594 9.84375 14.707C9.84375 16.667 10.9365 18.3691 12.5449 19.2422C13.2744 19.6377 14.1094 19.8633 15 19.8633C17.8477 19.8633 20.1562 17.5547 20.1562 14.707ZM11.7188 14.707C11.7188 13.8311 12.0615 13.0078 12.6797 12.3867C13.3008 11.7656 14.124 11.4258 15 11.4258C15.876 11.4258 16.6992 11.7656 17.3203 12.3867C17.6255 12.691 17.8675 13.0527 18.0325 13.4509C18.1974 13.8491 18.2819 14.276 18.2812 14.707C18.2812 15.583 17.9385 16.4063 17.3203 17.0273C17.016 17.3325 16.6543 17.5746 16.2561 17.7395C15.8579 17.9044 15.431 17.989 15 17.9883C14.124 17.9883 13.3008 17.6455 12.6797 17.0273C12.3745 16.723 12.1325 16.3613 11.9675 15.9631C11.8026 15.5649 11.7181 15.138 11.7188 14.707Z" fill="#6F6F6F"/>
<path d="M17.4033 27.8965C17.5908 27.8625 17.7636 27.7723 17.8986 27.6378C18.0336 27.5033 18.1245 27.3309 18.1592 27.1436L18.6191 24.6533C19.6793 24.2559 20.6662 23.6857 21.54 22.9658L23.9219 23.8125C24.1013 23.876 24.2957 23.8833 24.4794 23.8336C24.6631 23.7839 24.8273 23.6795 24.9502 23.5342L25.0029 23.4727C26.0225 22.2686 26.8076 20.9092 27.3379 19.4326L27.3643 19.3564C27.4141 19.2217 27.4287 19.0811 27.4141 18.9434C27.3877 18.7119 27.2764 18.4922 27.0918 18.3311L25.1787 16.6934L25.1729 16.6904C25.2637 16.1338 25.3106 15.5654 25.3106 14.9971C25.3106 14.502 25.2754 14.0039 25.2051 13.5176C25.1963 13.4531 25.1846 13.3887 25.1758 13.3242C25.1758 13.3184 25.1729 13.3096 25.1729 13.3037L27.0918 11.6631C27.294 11.4902 27.4111 11.2412 27.4199 10.9834C27.4229 10.8662 27.4053 10.7461 27.3643 10.6318L27.3379 10.5557C26.8096 9.07918 26.0186 7.71046 25.0029 6.51562L24.9502 6.4541C24.827 6.30923 24.6628 6.2051 24.4792 6.15541C24.2956 6.10573 24.1013 6.11283 23.9219 6.17578L21.54 7.02246C20.6611 6.30176 19.6826 5.7334 18.6221 5.33496H18.6191L18.1592 2.84473C18.1563 2.83008 18.1533 2.8125 18.1475 2.79785C18.1052 2.62072 18.0123 2.4597 17.8802 2.33435C17.7481 2.209 17.5824 2.12474 17.4033 2.0918L17.3242 2.07715C15.7979 1.80176 14.1924 1.80176 12.666 2.07715L12.5869 2.0918C12.3994 2.12577 12.2267 2.216 12.0917 2.35048C11.9567 2.48497 11.8658 2.65735 11.8311 2.84473L11.3682 5.34668C10.3161 5.7452 9.33633 6.31326 8.46778 7.02832L6.06837 6.17578C5.88897 6.11233 5.69451 6.10497 5.51083 6.15469C5.32715 6.2044 5.16295 6.30883 5.04005 6.4541L4.98731 6.51562C3.9729 7.7113 3.18197 9.0798 2.65235 10.5557L2.62598 10.6318C2.56493 10.8021 2.55429 10.9864 2.59535 11.1625C2.6364 11.3387 2.7274 11.4993 2.85743 11.625C2.87208 11.6367 2.8838 11.6514 2.89844 11.6631L4.84083 13.3213V13.3242C4.75001 13.875 4.70606 14.4346 4.70606 14.9941C4.70606 15.5566 4.75001 16.1191 4.84083 16.667L2.89844 18.3252C2.7537 18.4491 2.65011 18.6141 2.60144 18.7983C2.55277 18.9826 2.56133 19.1772 2.62598 19.3564L2.65235 19.4326C3.18262 20.9092 3.96778 22.2715 4.98731 23.4727L5.04005 23.5342C5.1836 23.7012 5.37403 23.8096 5.58204 23.8477C5.74024 23.877 5.90723 23.8682 6.06837 23.8125L8.46778 22.96C8.47071 22.9629 8.47657 22.9658 8.4795 22.9688C9.34962 23.6807 10.3193 24.2461 11.3682 24.6416L11.8311 27.1436C11.8658 27.3309 11.9567 27.5033 12.0917 27.6378C12.2267 27.7723 12.3994 27.8625 12.5869 27.8965L12.666 27.9111C13.4307 28.0488 14.2129 28.1191 14.9951 28.1191H15.0039C15.7832 28.1191 16.5654 28.0488 17.3242 27.9111L17.4033 27.8965ZM16.2373 25.9482C15.4099 26.042 14.5745 26.042 13.7471 25.9482L13.2227 23.1006L12.1152 22.6758C11.2803 22.3594 10.5039 21.9082 9.80958 21.3369L8.88965 20.5781L6.15333 21.5508C5.65528 20.8799 5.23926 20.1563 4.90528 19.3945L7.11719 17.5049L6.92676 16.333C6.85645 15.8965 6.81837 15.4453 6.81837 15C6.81837 14.5518 6.85352 14.1035 6.92676 13.667L7.11719 12.4951L4.90528 10.6055C5.23633 9.84082 5.65528 9.12012 6.15333 8.44922L8.88965 9.42188L9.80958 8.66309C10.5039 8.0918 11.2803 7.64062 12.1152 7.32422L13.2256 6.90527L13.75 4.05762C14.5732 3.96387 15.4141 3.96387 16.2402 4.05762L16.7647 6.89941L17.8809 7.31836C18.7217 7.63477 19.5039 8.08594 20.2041 8.66016L21.124 9.41602L23.8428 8.45215C24.3408 9.12305 24.7568 9.84668 25.0908 10.6084L22.9023 12.4805L23.0928 13.6494C23.166 14.0918 23.2041 14.5459 23.2041 15C23.2041 15.4541 23.166 15.9082 23.0928 16.3506L22.8994 17.5254L25.0879 19.3975C24.7561 20.1618 24.3373 20.8853 23.8398 21.5537L21.1211 20.5898L20.2012 21.3457C19.501 21.9199 18.7217 22.3711 17.8779 22.6875L16.7617 23.1064L16.2373 25.9482Z" fill="#6F6F6F"/>
</svg>
