<svg width="20" height="20" viewBox="0 0 20 20" fill="none" xmlns="http://www.w3.org/2000/svg">
<g clip-path="url(#clip0_658_779)">
<circle cx="10" cy="10" r="10" fill="white"/>
<path d="M10 0C4.47715 0 0 4.47715 0 10C0 15.5229 4.47715 20 10 20C15.5229 20 20 15.5229 20 10C20 4.47715 15.5229 0 10 0ZM12.2132 5.72505C13.4014 5.70648 14.476 6.35248 14.9854 7.45378C15.4567 8.90972 15.0623 10.3909 14.2313 11.5071C13.6827 12.2641 13.0271 12.9168 12.3569 13.4872C11.7403 14.0612 10.3601 15.1971 9.9943 15.2286C9.67102 15.1668 9.30808 14.8006 9.05142 14.6125C7.60918 13.5161 6.05697 12.1834 5.26977 10.7257C4.60975 9.32618 4.60855 7.59462 5.63577 6.52167C6.96772 5.32087 8.9756 5.5559 9.9943 6.81042C10.2679 6.4555 10.6044 6.17598 11.0037 5.97263C11.4083 5.81113 11.8171 5.73125 12.2132 5.72505Z" fill="#9795B5"/>
</g>
<defs>
<clipPath id="clip0_658_779">
<rect width="20" height="20" fill="white"/>
</clipPath>
</defs>
</svg>
