<svg width="21" height="21" viewBox="0 0 21 21" fill="none" xmlns="http://www.w3.org/2000/svg">
<path d="M20.6476 10.8447L11.2726 0.428076C10.8778 -0.0115071 10.1195 -0.0115071 9.72472 0.428076L0.349723 10.8447C0.214781 10.9943 0.126207 11.1799 0.0947688 11.3789C0.0633309 11.5779 0.0903841 11.7817 0.172639 11.9656C0.339306 12.3416 0.712223 12.5833 1.12368 12.5833H3.20701V19.875C3.20701 20.1512 3.31676 20.4162 3.51211 20.6115C3.70746 20.8069 3.97241 20.9166 4.24868 20.9166H7.37368C7.64995 20.9166 7.9149 20.8069 8.11025 20.6115C8.3056 20.4162 8.41535 20.1512 8.41535 19.875V15.7083H12.582V19.875C12.582 20.1512 12.6918 20.4162 12.8871 20.6115C13.0825 20.8069 13.3474 20.9166 13.6237 20.9166H16.7487C17.0249 20.9166 17.2899 20.8069 17.4853 20.6115C17.6806 20.4162 17.7903 20.1512 17.7903 19.875V12.5833H19.8737C20.0754 12.5841 20.273 12.5263 20.4425 12.4168C20.6119 12.3073 20.7458 12.1508 20.8278 11.9665C20.9099 11.7822 20.9365 11.578 20.9045 11.3788C20.8725 11.1796 20.7833 10.9941 20.6476 10.8447Z" fill="black"/>
</svg>
