<svg width="20" height="19" viewBox="0 0 20 19" fill="none" xmlns="http://www.w3.org/2000/svg">
<path d="M17.8346 9.50008H7.9388M15.7513 12.6251L18.8763 9.50008L15.7513 6.37508M10.543 4.29175V3.25008C10.543 2.69755 10.3235 2.16764 9.93277 1.77694C9.54207 1.38624 9.01217 1.16675 8.45964 1.16675H3.2513C2.69877 1.16675 2.16886 1.38624 1.77816 1.77694C1.38746 2.16764 1.16797 2.69755 1.16797 3.25008V15.7501C1.16797 16.3026 1.38746 16.8325 1.77816 17.2232C2.16886 17.6139 2.69877 17.8334 3.2513 17.8334H8.45964C9.01217 17.8334 9.54207 17.6139 9.93277 17.2232C10.3235 16.8325 10.543 16.3026 10.543 15.7501V14.7084" stroke="black" stroke-linecap="round" stroke-linejoin="round"/>
</svg>
