<svg width="370" height="85" viewBox="0 0 370 85" fill="none" xmlns="http://www.w3.org/2000/svg">
<g filter="url(#filter0_d_765_729)">
<path d="M44.51 19.67C44.51 21.7913 44.0907 23.666 43.252 25.294C42.4627 26.8727 41.1307 28.18 39.256 29.216C39.0587 29.364 38.6147 29.5613 37.924 29.808C37.2333 30.0547 36.518 30.326 35.778 30.622C35.038 30.8687 34.372 31.1153 33.78 31.362C33.188 31.6087 32.892 31.806 32.892 31.954C32.892 32.1513 33.2373 32.3733 33.928 32.62C34.6187 32.8667 35.408 33.1133 36.296 33.36C37.184 33.6067 38.0473 33.8287 38.886 34.026C39.7247 34.2233 40.2673 34.3713 40.514 34.47C43.03 35.3087 45.1267 36.5667 46.804 38.244C48.5307 39.9213 49.394 42.2153 49.394 45.126C49.394 45.9153 49.32 46.8033 49.172 47.79C49.0733 48.7273 48.8267 49.7387 48.432 50.824C48.0867 51.86 47.5687 52.9453 46.878 54.08C46.2367 55.1653 45.398 56.226 44.362 57.262C43.03 58.6433 41.0567 59.7533 38.442 60.592C35.8767 61.4307 33.1387 62.072 30.228 62.516C27.3667 63.0093 24.53 63.33 21.718 63.478C18.906 63.626 16.612 63.7 14.836 63.7C13.652 63.7 12.4927 63.6507 11.358 63.552C10.2727 63.4533 9.26133 63.2067 8.324 62.812C7.38667 62.4667 6.52333 61.924 5.734 61.184C4.94467 60.4933 4.254 59.556 3.662 58.372C2.922 56.892 2.30533 55.19 1.812 53.266C1.368 51.2927 0.998 49.2947 0.702 47.272C0.455333 45.2 0.282667 43.1773 0.184 41.204C0.0853334 39.1813 0.036 37.3313 0.036 35.654C0.036 33.9767 0.0606667 32.2007 0.11 30.326C0.159333 28.4513 0.233333 26.5767 0.332 24.702C0.48 22.778 0.677333 20.8787 0.924 19.004C1.17067 17.1293 1.46667 15.378 1.812 13.75C2.30533 11.6287 3.218 9.87733 4.55 8.496C5.882 7.11466 7.436 6.02933 9.212 5.24C10.988 4.45066 12.8873 3.908 14.91 3.612C16.982 3.316 18.9553 3.168 20.83 3.168C23.494 3.168 26.232 3.41467 29.044 3.908C31.856 4.40133 34.3967 5.28933 36.666 6.572C38.9847 7.80533 40.8593 9.48266 42.29 11.604C43.77 13.7253 44.51 16.414 44.51 19.67ZM21.126 26.626C21.866 26.626 22.5813 26.5027 23.272 26.256C24.012 25.96 24.6533 25.5653 25.196 25.072C25.788 24.5787 26.2567 24.0113 26.602 23.37C26.9473 22.6793 27.12 21.964 27.12 21.224C27.12 20.484 26.9473 19.7933 26.602 19.152C26.2567 18.4613 25.788 17.8693 25.196 17.376C24.6533 16.8827 24.012 16.5127 23.272 16.266C22.5813 15.97 21.866 15.822 21.126 15.822C20.386 15.822 19.7447 15.9947 19.202 16.34C18.7087 16.636 18.2893 17.0553 17.944 17.598C17.5987 18.0913 17.352 18.6587 17.204 19.3C17.056 19.9413 16.982 20.5827 16.982 21.224C16.982 21.8653 17.056 22.5067 17.204 23.148C17.352 23.7893 17.5987 24.3813 17.944 24.924C18.2893 25.4173 18.7087 25.8367 19.202 26.182C19.7447 26.478 20.386 26.626 21.126 26.626ZM21.792 49.566C22.384 49.566 23.05 49.4427 23.79 49.196C24.53 48.9493 25.196 48.6287 25.788 48.234C26.4293 47.79 26.9473 47.272 27.342 46.68C27.786 46.088 28.008 45.4467 28.008 44.756C28.008 44.0653 27.786 43.3747 27.342 42.684C26.898 41.944 26.3307 41.3027 25.64 40.76C24.9987 40.2173 24.2833 39.7733 23.494 39.428C22.754 39.0827 22.0387 38.91 21.348 38.91C20.7067 38.91 20.164 39.0827 19.72 39.428C19.276 39.7733 18.906 40.2173 18.61 40.76C18.3633 41.2533 18.166 41.796 18.018 42.388C17.9193 42.98 17.87 43.5473 17.87 44.09C17.87 44.682 17.944 45.2987 18.092 45.94C18.24 46.5813 18.462 47.1733 18.758 47.716C19.054 48.2587 19.4487 48.7027 19.942 49.048C20.4353 49.3933 21.052 49.566 21.792 49.566ZM110.613 35.21C110.613 39.4033 109.923 43.0787 108.541 46.236C107.16 49.3933 105.236 52.0573 102.769 54.228C100.303 56.3493 97.3674 57.9527 93.9634 59.038C90.5594 60.1233 86.8101 60.666 82.7154 60.666C78.5714 60.666 74.6494 59.9753 70.9494 58.594C67.2987 57.1633 64.0674 55.19 61.2554 52.674C58.4927 50.1087 56.2974 47.05 54.6694 43.498C53.0414 39.946 52.2274 36.0487 52.2274 31.806C52.2274 26.9713 53.0414 22.8027 54.6694 19.3C56.2974 15.748 58.5174 12.8127 61.3294 10.494C64.1907 8.126 67.5207 6.37467 71.3194 5.24C75.1674 4.10533 79.2867 3.538 83.6774 3.538C86.6867 3.538 89.5974 4.17933 92.4094 5.462C95.2214 6.69533 97.7621 8.37267 100.031 10.494C102.35 12.566 104.323 14.934 105.951 17.598C107.629 20.262 108.813 23 109.503 25.812C110.243 28.8213 110.613 31.954 110.613 35.21ZM73.6874 31.436C73.6874 32.4227 73.9341 33.286 74.4274 34.026C74.9207 34.766 75.5374 35.3827 76.2774 35.876C77.0174 36.32 77.8314 36.6653 78.7194 36.912C79.6567 37.1587 80.5447 37.282 81.3834 37.282C83.5541 37.282 85.2314 36.7393 86.4154 35.654C87.6487 34.5193 88.2654 32.842 88.2654 30.622C88.2654 29.5367 88.0434 28.5747 87.5994 27.736C87.1554 26.8973 86.5634 26.182 85.8234 25.59C85.1327 24.998 84.3187 24.554 83.3814 24.258C82.4441 23.962 81.4574 23.814 80.4214 23.814C79.3854 23.814 78.4481 24.036 77.6094 24.48C76.8201 24.924 76.1294 25.4913 75.5374 26.182C74.9454 26.8727 74.4767 27.6867 74.1314 28.624C73.8354 29.512 73.6874 30.4493 73.6874 31.436ZM163.156 37.874C163.156 41.13 162.588 44.0653 161.454 46.68C160.319 49.2947 158.765 51.6133 156.792 53.636C154.868 55.6093 152.598 57.3113 149.984 58.742C147.418 60.1727 144.68 61.332 141.77 62.22C138.908 63.1573 135.973 63.8233 132.964 64.218C129.954 64.662 127.044 64.884 124.232 64.884C122.258 64.884 120.532 64.5633 119.052 63.922C117.572 63.2807 116.536 61.924 115.944 59.852C115.45 57.9773 115.031 55.782 114.686 53.266C114.34 50.75 114.044 48.16 113.798 45.496C113.6 42.832 113.452 40.242 113.354 37.726C113.304 35.1607 113.28 32.8913 113.28 30.918C113.28 29.1913 113.304 27.366 113.354 25.442C113.452 23.4687 113.576 21.4953 113.724 19.522C113.921 17.4993 114.192 15.526 114.538 13.602C114.883 11.678 115.352 9.902 115.944 8.274C116.388 7.09 117.004 6.128 117.794 5.388C118.583 4.648 119.496 4.08066 120.532 3.686C121.568 3.242 122.653 2.97066 123.788 2.872C124.972 2.724 126.131 2.65 127.266 2.65C129.93 2.65 132.594 2.89666 135.258 3.39C137.922 3.834 140.561 4.352 143.176 4.944C146.481 5.73333 149.54 7.28733 152.352 9.606C155.164 11.8753 157.285 14.564 158.716 17.672C160.097 20.78 161.182 24.0853 161.972 27.588C162.761 31.0413 163.156 34.47 163.156 37.874ZM131.78 32.102C131.78 32.5953 131.78 33.4093 131.78 34.544C131.829 35.6293 131.928 36.7393 132.076 37.874C132.273 39.0087 132.569 39.9953 132.964 40.834C133.408 41.6727 134 42.092 134.74 42.092C135.381 42.092 136.096 41.944 136.886 41.648C137.675 41.3027 138.44 40.908 139.18 40.464C139.969 39.9707 140.684 39.4527 141.326 38.91C141.967 38.3673 142.485 37.8493 142.88 37.356C143.274 36.8627 143.546 36.32 143.694 35.728C143.891 35.136 143.99 34.4947 143.99 33.804C143.99 32.7187 143.718 31.584 143.176 30.4C142.682 29.1667 141.992 28.0567 141.104 27.07C140.265 26.034 139.278 25.1953 138.144 24.554C137.058 23.8633 135.948 23.518 134.814 23.518C134.074 23.518 133.482 23.8633 133.038 24.554C132.643 25.2447 132.347 26.0833 132.15 27.07C131.952 28.0073 131.829 28.9447 131.78 29.882C131.78 30.8193 131.78 31.5593 131.78 32.102ZM189.437 1.318C190.571 1.318 191.854 1.36733 193.285 1.466C194.765 1.56466 196.245 1.73733 197.725 1.984C199.205 2.23066 200.635 2.55133 202.017 2.946C203.398 3.29133 204.607 3.73533 205.643 4.278C206.383 4.67266 206.975 5.092 207.419 5.536C207.863 5.98 208.183 6.47333 208.381 7.016C208.627 7.50933 208.775 8.07666 208.825 8.718C208.874 9.35933 208.899 10.0747 208.899 10.864C208.899 13.824 208.356 16.0687 207.271 17.598C206.235 19.1273 204.853 20.2373 203.127 20.928C201.449 21.6187 199.501 22.0133 197.281 22.112C195.11 22.1613 192.865 22.186 190.547 22.186C190.053 22.186 189.461 22.2107 188.771 22.26C188.129 22.26 187.513 22.3587 186.921 22.556C186.329 22.7533 185.835 23.0493 185.441 23.444C185.046 23.8387 184.849 24.3813 184.849 25.072C184.849 26.0093 185.194 26.5767 185.885 26.774C186.625 26.9713 187.365 27.07 188.105 27.07C189.535 27.07 190.966 26.9713 192.397 26.774C193.827 26.5767 195.258 26.478 196.689 26.478C198.81 26.478 200.438 26.996 201.573 28.032C202.707 29.068 203.275 30.6713 203.275 32.842C203.275 33.878 203.151 34.8893 202.905 35.876C202.658 36.8627 202.239 37.7507 201.647 38.54C201.104 39.28 200.413 39.872 199.575 40.316C198.736 40.76 197.725 40.982 196.541 40.982C195.406 40.982 194.271 40.8833 193.137 40.686C192.002 40.4887 190.867 40.39 189.733 40.39C189.486 40.39 189.141 40.4147 188.697 40.464C188.302 40.464 187.907 40.5133 187.513 40.612C187.118 40.7107 186.773 40.8587 186.477 41.056C186.23 41.2533 186.107 41.5493 186.107 41.944C186.107 43.276 186.501 44.1393 187.291 44.534C188.129 44.9287 189.116 45.126 190.251 45.126C192.421 45.126 194.543 44.9287 196.615 44.534C198.687 44.1393 200.833 43.942 203.053 43.942C204.533 43.942 205.865 44.386 207.049 45.274C208.282 46.162 209.343 47.272 210.231 48.604C211.119 49.8867 211.785 51.2927 212.229 52.822C212.722 54.3513 212.969 55.7573 212.969 57.04C212.969 57.9773 212.475 58.816 211.489 59.556C210.551 60.2467 209.343 60.8387 207.863 61.332C206.383 61.8747 204.73 62.3187 202.905 62.664C201.079 63.0587 199.303 63.3547 197.577 63.552C195.85 63.7987 194.271 63.9713 192.841 64.07C191.41 64.1687 190.349 64.218 189.659 64.218C188.277 64.218 186.748 64.1687 185.071 64.07C183.393 63.9713 181.691 63.774 179.965 63.478C178.287 63.182 176.659 62.738 175.081 62.146C173.502 61.6033 172.096 60.8633 170.863 59.926C169.679 58.9887 168.717 57.854 167.977 56.522C167.237 55.1407 166.867 53.5127 166.867 51.638C166.867 47.05 166.793 42.5113 166.645 38.022C166.546 33.5327 166.497 28.994 166.497 24.406C166.497 23.6167 166.447 22.2847 166.349 20.41C166.299 18.5353 166.349 16.562 166.497 14.49C166.694 12.3687 167.089 10.3953 167.681 8.57C168.273 6.74466 169.21 5.51133 170.493 4.87C171.775 4.22866 173.231 3.686 174.859 3.242C176.536 2.798 178.213 2.428 179.891 2.132C181.617 1.836 183.295 1.63866 184.923 1.54C186.6 1.392 188.105 1.318 189.437 1.318ZM229.109 0.207998C231.23 0.207998 233.154 0.454664 234.881 0.947997C236.657 1.44133 238.161 2.23066 239.395 3.316C240.677 4.352 241.664 5.70866 242.355 7.386C243.045 9.014 243.391 10.9627 243.391 13.232C243.391 15.156 243.169 17.0553 242.725 18.93C242.33 20.8047 241.861 22.6793 241.319 24.554C240.825 26.4287 240.357 28.328 239.913 30.252C239.469 32.1267 239.247 34.0507 239.247 36.024C239.247 36.6653 239.271 37.3807 239.321 38.17C239.37 38.91 239.493 39.6253 239.691 40.316C239.937 40.9573 240.307 41.5 240.801 41.944C241.343 42.388 242.083 42.61 243.021 42.61C244.106 42.61 245.043 42.314 245.833 41.722C246.671 41.13 247.362 40.3653 247.905 39.428C248.497 38.4907 248.941 37.43 249.237 36.246C249.533 35.062 249.681 33.878 249.681 32.694C249.681 31.1153 249.459 29.5613 249.015 28.032C248.62 26.4533 248.176 24.8993 247.683 23.37C247.189 21.7913 246.721 20.262 246.277 18.782C245.882 17.302 245.685 15.8713 245.685 14.49C245.685 12.5167 246.129 10.8887 247.017 9.606C247.905 8.32333 248.99 7.312 250.273 6.572C251.605 5.832 253.035 5.314 254.565 5.018C256.143 4.722 257.599 4.574 258.931 4.574C262.039 4.574 264.481 5.166 266.257 6.35C268.033 7.48466 269.365 9.014 270.253 10.938C271.141 12.8127 271.683 14.9587 271.881 17.376C272.127 19.7933 272.251 22.2353 272.251 24.702C272.251 28.0567 272.029 31.3867 271.585 34.692C271.141 37.948 270.623 40.686 270.031 42.906C269.044 46.6553 267.613 49.788 265.739 52.304C263.864 54.82 261.669 56.8427 259.153 58.372C256.686 59.852 253.973 60.9127 251.013 61.554C248.053 62.1953 244.969 62.516 241.763 62.516C239.148 62.516 236.509 62.2693 233.845 61.776C231.23 61.2827 228.788 60.3453 226.519 58.964C224.249 57.5333 222.251 55.5353 220.525 52.97C218.798 50.4047 217.491 47.0747 216.603 42.98C216.356 41.8453 216.109 40.4887 215.863 38.91C215.616 37.282 215.394 35.4813 215.197 33.508C214.999 31.4853 214.827 29.3393 214.679 27.07C214.58 24.8007 214.531 22.4573 214.531 20.04C214.531 17.524 214.654 15.082 214.901 12.714C215.197 10.346 215.838 8.24933 216.825 6.424C217.811 4.54933 219.267 3.04466 221.191 1.91C223.115 0.775331 225.754 0.207998 229.109 0.207998ZM299.062 3.168C301.529 3.168 303.527 3.58733 305.056 4.426C306.635 5.26466 307.893 6.32533 308.83 7.608C309.817 8.89066 310.532 10.272 310.976 11.752C311.469 13.1827 311.864 14.5393 312.16 15.822C312.456 17.1047 312.727 18.1653 312.974 19.004C313.27 19.8427 313.714 20.262 314.306 20.262C314.898 20.262 315.391 19.8427 315.786 19.004C316.181 18.1653 316.6 17.1293 317.044 15.896C317.537 14.6627 318.08 13.306 318.672 11.826C319.313 10.346 320.127 8.98933 321.114 7.756C322.101 6.52267 323.309 5.48667 324.74 4.648C326.22 3.80933 328.021 3.39 330.142 3.39C332.707 3.39 334.952 4.204 336.876 5.832C338.849 7.41066 340.527 9.48266 341.908 12.048C343.289 14.564 344.424 17.4253 345.312 20.632C346.249 23.8387 346.989 27.0453 347.532 30.252C348.075 33.4093 348.445 36.4187 348.642 39.28C348.889 42.1413 349.012 44.5093 349.012 46.384C349.012 49.64 348.864 52.23 348.568 54.154C348.321 56.0287 347.705 57.4593 346.718 58.446C345.781 59.3833 344.35 59.9753 342.426 60.222C340.502 60.518 337.863 60.666 334.508 60.666C332.584 60.666 331.079 60 329.994 58.668C328.909 57.2867 328.095 55.6093 327.552 53.636C327.059 51.6133 326.738 49.418 326.59 47.05C326.442 44.682 326.319 42.5113 326.22 40.538C326.121 38.5153 325.949 36.838 325.702 35.506C325.505 34.1247 325.085 33.434 324.444 33.434C323.803 33.434 323.211 33.8533 322.668 34.692C322.175 35.5307 321.681 36.5667 321.188 37.8C320.744 39.0333 320.251 40.39 319.708 41.87C319.215 43.3007 318.623 44.6327 317.932 45.866C317.241 47.0993 316.452 48.1353 315.564 48.974C314.676 49.8127 313.591 50.232 312.308 50.232C310.68 50.232 309.323 49.788 308.238 48.9C307.202 47.9627 306.314 46.8033 305.574 45.422C304.883 44.0407 304.316 42.5607 303.872 40.982C303.477 39.4033 303.107 37.9233 302.762 36.542C302.417 35.1607 302.071 34.026 301.726 33.138C301.381 32.2007 300.937 31.732 300.394 31.732C299.851 31.732 299.407 32.2747 299.062 33.36C298.766 34.4453 298.495 35.8267 298.248 37.504C298.051 39.1813 297.878 41.056 297.73 43.128C297.582 45.2 297.385 47.2227 297.138 49.196C296.941 51.1693 296.694 52.97 296.398 54.598C296.102 56.226 295.707 57.4593 295.214 58.298C294.77 58.9887 294.252 59.556 293.66 60C293.068 60.444 292.427 60.7893 291.736 61.036C291.045 61.2827 290.305 61.4553 289.516 61.554C288.727 61.6527 287.962 61.702 287.222 61.702C286.137 61.702 284.854 61.5787 283.374 61.332C281.943 61.0853 280.562 60.666 279.23 60.074C277.898 59.5313 276.763 58.7913 275.826 57.854C274.889 56.9167 274.42 55.7573 274.42 54.376C274.42 53.0933 274.543 51.7613 274.79 50.38C275.037 48.9493 275.259 47.5927 275.456 46.31C275.801 44.09 276.171 41.7467 276.566 39.28C276.961 36.764 277.405 34.2233 277.898 31.658C278.441 29.0433 279.082 26.478 279.822 23.962C280.611 21.3967 281.524 18.9793 282.56 16.71C283.645 14.3913 284.903 12.27 286.334 10.346C287.765 8.422 289.442 6.794 291.366 5.462C292.501 4.62333 293.709 4.03133 294.992 3.686C296.275 3.34067 297.631 3.168 299.062 3.168Z" fill="white"/>
</g>
<defs>
<filter id="filter0_d_765_729" x="0.0351562" y="0.208008" width="368.977" height="84.6758" filterUnits="userSpaceOnUse" color-interpolation-filters="sRGB">
<feFlood flood-opacity="0" result="BackgroundImageFix"/>
<feColorMatrix in="SourceAlpha" type="matrix" values="0 0 0 0 0 0 0 0 0 0 0 0 0 0 0 0 0 0 127 0" result="hardAlpha"/>
<feOffset dx="10" dy="10"/>
<feGaussianBlur stdDeviation="5"/>
<feComposite in2="hardAlpha" operator="out"/>
<feColorMatrix type="matrix" values="0 0 0 0 0.276772 0 0 0 0 0.513333 0 0 0 0 0.327795 0 0 0 0.3 0"/>
<feBlend mode="normal" in2="BackgroundImageFix" result="effect1_dropShadow_765_729"/>
<feBlend mode="normal" in="SourceGraphic" in2="effect1_dropShadow_765_729" result="shape"/>
</filter>
</defs>
</svg>
