<svg width="60" height="60" viewBox="0 0 60 60" fill="none" xmlns="http://www.w3.org/2000/svg">
<g clip-path="url(#clip0_821_658)" filter="url(#filter0_d_821_658)">
<path d="M49.908 11.715C49.9989 11.4878 50.0212 11.239 49.972 10.9993C49.9228 10.7596 49.8044 10.5396 49.6314 10.3666C49.4584 10.1936 49.2384 10.0752 48.9987 10.026C48.759 9.97682 48.5101 9.99908 48.283 10.09L11.9155 24.6375H11.913L10.783 25.0875C10.5689 25.1729 10.3827 25.3157 10.2448 25.5003C10.1068 25.6849 10.0226 25.904 10.0014 26.1335C9.98019 26.3629 10.0228 26.5938 10.1246 26.8005C10.2263 27.0072 10.3832 27.1818 10.578 27.305L11.603 27.955L11.6055 27.96L24.093 35.905L32.038 48.3925L32.043 48.3975L32.693 49.4225C32.8165 49.6165 32.9912 49.7726 33.1978 49.8737C33.4044 49.9749 33.6349 50.017 33.8639 49.9955C34.0929 49.9741 34.3115 49.8899 34.4957 49.7522C34.6799 49.6144 34.8226 49.4286 34.908 49.215L49.908 11.715ZM45.3255 16.44L26.5905 35.175L26.053 34.33C25.9545 34.1749 25.823 34.0435 25.668 33.945L24.823 33.4075L43.558 14.6725L46.503 13.495L45.328 16.44H45.3255Z" fill="white"/>
</g>
<defs>
<filter id="filter0_d_821_658" x="0" y="0" width="60" height="60" filterUnits="userSpaceOnUse" color-interpolation-filters="sRGB">
<feFlood flood-opacity="0" result="BackgroundImageFix"/>
<feColorMatrix in="SourceAlpha" type="matrix" values="0 0 0 0 0 0 0 0 0 0 0 0 0 0 0 0 0 0 127 0" result="hardAlpha"/>
<feOffset/>
<feGaussianBlur stdDeviation="5"/>
<feComposite in2="hardAlpha" operator="out"/>
<feColorMatrix type="matrix" values="0 0 0 0 0 0 0 0 0 0 0 0 0 0 0 0 0 0 0.2 0"/>
<feBlend mode="normal" in2="BackgroundImageFix" result="effect1_dropShadow_821_658"/>
<feBlend mode="normal" in="SourceGraphic" in2="effect1_dropShadow_821_658" result="shape"/>
</filter>
<clipPath id="clip0_821_658">
<rect width="40" height="40" fill="white" transform="translate(10 10)"/>
</clipPath>
</defs>
</svg>
