<svg width="40" height="40" viewBox="0 0 40 40" fill="none" xmlns="http://www.w3.org/2000/svg">
<path d="M39.908 1.715C39.9989 1.48784 40.0212 1.23899 39.972 0.999302C39.9228 0.759611 39.8044 0.539621 39.6314 0.366605C39.4584 0.193589 39.2384 0.0751553 38.9987 0.0259867C38.759 -0.023182 38.5101 -0.000923203 38.283 0.0900035L1.91547 14.6375H1.91297L0.782968 15.0875C0.568944 15.1729 0.382682 15.3157 0.244757 15.5003C0.106833 15.6849 0.0226131 15.904 0.0014018 16.1335C-0.0198096 16.3629 0.0228128 16.5938 0.124561 16.8005C0.226308 17.0072 0.383222 17.1818 0.577968 17.305L1.60297 17.955L1.60547 17.96L14.093 25.905L22.038 38.3925L22.043 38.3975L22.693 39.4225C22.8165 39.6165 22.9912 39.7726 23.1978 39.8737C23.4044 39.9749 23.6349 40.017 23.8639 39.9955C24.0929 39.9741 24.3115 39.8899 24.4957 39.7522C24.6799 39.6144 24.8226 39.4286 24.908 39.215L39.908 1.715ZM35.3255 6.44L16.5905 25.175L16.053 24.33C15.9545 24.1749 15.823 24.0435 15.668 23.945L14.823 23.4075L33.558 4.6725L36.503 3.495L35.328 6.44H35.3255Z" fill="white"/>
</svg>
