<svg width="86" height="168" viewBox="0 0 86 168" fill="none" xmlns="http://www.w3.org/2000/svg">
<path d="M32.9963 61.2669L31.5064 61.4407L32.9963 61.2669ZM82.7125 73.0655L84.0871 72.4652L82.7125 73.0655ZM2.35961 103.452L3.85204 103.603L2.35961 103.452ZM43.1325 164.208L31.9028 151.021L26.0975 167.339L43.1325 164.208ZM80.0659 0.410232C69.335 2.27158 56.2167 8.70582 46.2707 19.0418C36.2931 29.4106 29.446 43.7803 31.5064 61.4407L34.4862 61.0931C32.5487 44.4864 38.9533 30.9727 48.4324 21.1219C57.9433 11.2382 70.4869 5.11656 80.5787 3.36609L80.0659 0.410232ZM31.5064 61.4407C33.2534 76.4154 38.0374 86.5332 44.2269 92.7771C50.4337 99.0385 57.9563 101.299 64.8941 100.701C71.795 100.106 78.125 96.6802 81.9799 91.5758C85.8683 86.4271 87.2033 79.6005 84.0871 72.4652L81.3378 73.6659C83.9941 79.7478 82.8613 85.4308 79.5859 89.7678C76.277 94.1492 70.7471 97.1853 64.6364 97.7121C58.5625 98.2358 51.9217 96.2783 46.3575 90.6651C40.7759 85.0345 36.1812 75.6216 34.4862 61.0931L31.5064 61.4407ZM84.0871 72.4652C76.5673 55.2472 56.5942 51.4415 38.4981 57.46C20.3086 63.5097 3.25608 79.6284 0.867193 103.302L3.85204 103.603C6.10027 81.3235 22.1529 66.0578 39.4449 60.3067C56.8304 54.5245 74.7151 58.5018 81.3378 73.6659L84.0871 72.4652ZM0.867193 103.302C-0.862866 120.446 2.1947 133.001 7.84249 142.248C13.4845 151.485 21.6196 157.27 29.7836 161.044L31.0425 158.321C23.2448 154.716 15.6491 149.274 10.4027 140.684C5.16208 132.104 2.17375 120.234 3.85204 103.603L0.867193 103.302Z" fill="white"/>
</svg>
