<svg width="150" height="108" viewBox="0 0 150 108" fill="none" xmlns="http://www.w3.org/2000/svg">
<path d="M47.2496 46.85L47.0398 45.3648L47.2496 46.85ZM71.2727 91.9477L71.0406 93.4296L71.2727 91.9477ZM80.2845 6.51516L80.8088 7.92058L80.2845 6.51516ZM149.395 30.5444L133.791 23.0268L148.103 13.2721L149.395 30.5444ZM0.322093 107.816C-0.599289 96.9642 2.29716 82.6429 9.77233 70.4005C17.2713 58.1192 29.4344 47.8512 47.0398 45.3648L47.4594 48.3353C30.9044 50.6734 19.4571 60.2962 12.3328 71.9639C5.18463 83.6707 2.44484 97.3568 3.31134 107.563L0.322093 107.816ZM47.0398 45.3648C61.9679 43.2564 72.9683 45.3176 80.578 49.7209C88.2089 54.1366 92.3037 60.8398 93.4848 67.7024C94.6597 74.5286 92.9515 81.5205 88.9918 86.544C84.9978 91.6112 78.733 94.6341 71.0406 93.4296L71.5047 90.4657C78.0615 91.4924 83.2713 88.9553 86.6357 84.6869C90.0345 80.3749 91.5686 74.2558 90.5283 68.2113C89.4943 62.2032 85.9163 56.2761 79.0754 52.3175C72.2133 48.3467 61.9427 46.2898 47.4594 48.3353L47.0398 45.3648ZM71.0406 93.4296C52.4784 90.5231 43.731 72.1684 44.9628 53.1375C46.2009 34.0084 57.4672 13.4251 79.7603 5.10975L80.8088 7.92058C59.8283 15.7463 49.1335 35.1461 47.9565 53.3313C46.7731 71.6149 55.1567 87.9059 71.5047 90.4657L71.0406 93.4296ZM79.7603 5.10975C95.9052 -0.912327 108.826 -1.13936 119.202 1.9784C129.568 5.09297 137.227 11.4948 142.949 18.4344L140.634 20.3429C135.169 13.7146 127.978 7.74767 118.339 4.85151C108.71 1.95854 96.4705 2.07874 80.8088 7.92058L79.7603 5.10975Z" fill="white"/>
</svg>
