<svg width="19" height="5" viewBox="0 0 19 5" fill="none" xmlns="http://www.w3.org/2000/svg">
<path d="M4.29167 2.50008C4.29167 3.05262 4.07217 3.58252 3.68147 3.97322C3.29077 4.36392 2.76087 4.58341 2.20833 4.58341C1.6558 4.58341 1.12589 4.36392 0.735194 3.97322C0.344493 3.58252 0.125 3.05262 0.125 2.50008C0.125 1.94755 0.344493 1.41764 0.735194 1.02694C1.12589 0.636242 1.6558 0.416748 2.20833 0.416748C2.76087 0.416748 3.29077 0.636242 3.68147 1.02694C4.07217 1.41764 4.29167 1.94755 4.29167 2.50008ZM11.5833 2.50008C11.5833 3.05262 11.3638 3.58252 10.9731 3.97322C10.5824 4.36392 10.0525 4.58341 9.5 4.58341C8.94746 4.58341 8.41756 4.36392 8.02686 3.97322C7.63616 3.58252 7.41667 3.05262 7.41667 2.50008C7.41667 1.94755 7.63616 1.41764 8.02686 1.02694C8.41756 0.636242 8.94746 0.416748 9.5 0.416748C10.0525 0.416748 10.5824 0.636242 10.9731 1.02694C11.3638 1.41764 11.5833 1.94755 11.5833 2.50008ZM18.875 2.50008C18.875 3.05262 18.6555 3.58252 18.2648 3.97322C17.8741 4.36392 17.3442 4.58341 16.7917 4.58341C16.2391 4.58341 15.7092 4.36392 15.3185 3.97322C14.9278 3.58252 14.7083 3.05262 14.7083 2.50008C14.7083 1.94755 14.9278 1.41764 15.3185 1.02694C15.7092 0.636242 16.2391 0.416748 16.7917 0.416748C17.3442 0.416748 17.8741 0.636242 18.2648 1.02694C18.6555 1.41764 18.875 1.94755 18.875 2.50008Z" fill="black"/>
</svg>
