<svg width="114" height="146" viewBox="0 0 114 146" fill="none" xmlns="http://www.w3.org/2000/svg">
<path d="M49.9884 44.3114L48.5162 44.0236L49.9884 44.3114ZM93.7559 70.6802L95.248 70.5267L93.7559 70.6802ZM7.96688 75.1725L9.34268 75.7701L7.96688 75.1725ZM28.3167 145.454L21.6327 129.475L11.1366 143.253L28.3167 145.454ZM113.345 0.665614C102.557 -0.827003 88.1029 1.30988 75.4832 8.12879C62.8234 14.9694 51.928 26.5739 48.5162 44.0236L51.4605 44.5993C54.6687 28.1907 64.882 17.267 76.9094 10.7681C88.9769 4.24755 102.789 2.2336 112.934 3.63731L113.345 0.665614ZM48.5162 44.0236C45.6233 58.8197 47.1012 69.9135 51.097 77.7448C55.104 85.5981 61.5818 90.0409 68.3725 91.5824C75.1272 93.1157 82.1995 91.7787 87.4249 88.0896C92.6957 84.3684 96.045 78.2718 95.248 70.5267L92.2637 70.8338C92.9431 77.4356 90.1347 82.5042 85.6947 85.6388C81.2094 88.8054 75.0179 90.0146 69.0367 88.6568C63.0915 87.3072 57.3614 83.4216 53.7693 76.3814C50.166 69.3193 48.6537 58.9546 51.4605 44.5993L48.5162 44.0236ZM95.248 70.5267C93.3247 51.8369 75.4571 42.1335 56.3878 42.3595C37.2199 42.5867 16.071 52.7514 6.59107 74.5748L9.34268 75.7701C18.2644 55.2317 38.2013 45.5753 56.4233 45.3593C74.7439 45.1421 90.5699 54.3735 92.2637 70.8338L95.248 70.5267ZM6.59107 74.5748C-0.274358 90.3796 -1.1827 103.27 1.38328 113.797C3.94664 124.313 9.93548 132.299 16.5636 138.378L18.5915 136.168C12.2607 130.361 6.68154 122.865 4.29794 113.086C1.91696 103.318 2.68273 91.1018 9.34268 75.7701L6.59107 74.5748Z" fill="white"/>
</svg>
